<mxfile host="app.diagrams.net" modified="2020-11-30T23:40:50.975Z" agent="5.0 (X11; Linux x86_64) AppleWebKit/537.36 (KHTML, like Gecko) Chrome/80.0.3987.149 Safari/537.36" etag="WpJ1qS-TuIhL8j57j4hm" compressed="false" version="13.10.4" type="device">
  <diagram id="MivVnp2VQLZu9SO0e3je" name="Page-1">
    <mxGraphModel dx="1822" dy="774" grid="1" gridSize="10" guides="1" tooltips="1" connect="1" arrows="1" fold="1" page="0" pageScale="1" pageWidth="850" pageHeight="1100" math="0" shadow="0">
      <root>
        <mxCell id="0" />
        <mxCell id="1" parent="0" />
        <mxCell id="NUFGH_hVGk4y_TYJHu7n-14" style="edgeStyle=orthogonalEdgeStyle;rounded=0;orthogonalLoop=1;jettySize=auto;html=1;exitX=0.5;exitY=1;exitDx=0;exitDy=0;entryX=0.5;entryY=0;entryDx=0;entryDy=0;" parent="1" source="NUFGH_hVGk4y_TYJHu7n-1" target="NUFGH_hVGk4y_TYJHu7n-2" edge="1">
          <mxGeometry relative="1" as="geometry" />
        </mxCell>
        <mxCell id="NUFGH_hVGk4y_TYJHu7n-1" value="High FIRRTL" style="rounded=0;whiteSpace=wrap;html=1;" parent="1" vertex="1">
          <mxGeometry x="150" y="130" width="120" height="60" as="geometry" />
        </mxCell>
        <mxCell id="NUFGH_hVGk4y_TYJHu7n-10" style="edgeStyle=orthogonalEdgeStyle;rounded=0;orthogonalLoop=1;jettySize=auto;html=1;exitX=0.5;exitY=1;exitDx=0;exitDy=0;entryX=0.5;entryY=0;entryDx=0;entryDy=0;" parent="1" source="NUFGH_hVGk4y_TYJHu7n-2" target="NUFGH_hVGk4y_TYJHu7n-3" edge="1">
          <mxGeometry relative="1" as="geometry" />
        </mxCell>
        <mxCell id="NUFGH_hVGk4y_TYJHu7n-20" style="edgeStyle=orthogonalEdgeStyle;rounded=0;orthogonalLoop=1;jettySize=auto;html=1;exitX=1;exitY=0.5;exitDx=0;exitDy=0;entryX=0.75;entryY=0;entryDx=0;entryDy=0;dashed=1;" parent="1" source="NUFGH_hVGk4y_TYJHu7n-2" target="NUFGH_hVGk4y_TYJHu7n-5" edge="1">
          <mxGeometry relative="1" as="geometry" />
        </mxCell>
        <mxCell id="NUFGH_hVGk4y_TYJHu7n-21" style="edgeStyle=orthogonalEdgeStyle;rounded=0;orthogonalLoop=1;jettySize=auto;html=1;exitX=1;exitY=0.25;exitDx=0;exitDy=0;entryX=0;entryY=0;entryDx=0;entryDy=0;dashed=1;" parent="1" source="NUFGH_hVGk4y_TYJHu7n-2" target="NUFGH_hVGk4y_TYJHu7n-44" edge="1">
          <mxGeometry relative="1" as="geometry">
            <Array as="points">
              <mxPoint x="370" y="235" />
              <mxPoint x="370" y="500" />
            </Array>
          </mxGeometry>
        </mxCell>
        <mxCell id="NUFGH_hVGk4y_TYJHu7n-2" value="Mid FIRRTL" style="rounded=0;whiteSpace=wrap;html=1;" parent="1" vertex="1">
          <mxGeometry x="150" y="220" width="120" height="60" as="geometry" />
        </mxCell>
        <mxCell id="NUFGH_hVGk4y_TYJHu7n-11" style="edgeStyle=orthogonalEdgeStyle;rounded=0;orthogonalLoop=1;jettySize=auto;html=1;exitX=0.25;exitY=1;exitDx=0;exitDy=0;entryX=0.75;entryY=0;entryDx=0;entryDy=0;" parent="1" source="NUFGH_hVGk4y_TYJHu7n-3" target="NUFGH_hVGk4y_TYJHu7n-4" edge="1">
          <mxGeometry relative="1" as="geometry" />
        </mxCell>
        <mxCell id="NUFGH_hVGk4y_TYJHu7n-12" style="edgeStyle=orthogonalEdgeStyle;rounded=0;orthogonalLoop=1;jettySize=auto;html=1;exitX=0.75;exitY=1;exitDx=0;exitDy=0;entryX=0.25;entryY=0;entryDx=0;entryDy=0;" parent="1" source="NUFGH_hVGk4y_TYJHu7n-3" target="NUFGH_hVGk4y_TYJHu7n-5" edge="1">
          <mxGeometry relative="1" as="geometry" />
        </mxCell>
        <mxCell id="NUFGH_hVGk4y_TYJHu7n-31" style="edgeStyle=orthogonalEdgeStyle;rounded=0;orthogonalLoop=1;jettySize=auto;html=1;exitX=1;exitY=0.5;exitDx=0;exitDy=0;entryX=-0.014;entryY=0.125;entryDx=0;entryDy=0;entryPerimeter=0;" parent="1" source="NUFGH_hVGk4y_TYJHu7n-3" target="NUFGH_hVGk4y_TYJHu7n-7" edge="1">
          <mxGeometry relative="1" as="geometry" />
        </mxCell>
        <mxCell id="NUFGH_hVGk4y_TYJHu7n-3" value="Low FIRRTL" style="rounded=0;whiteSpace=wrap;html=1;" parent="1" vertex="1">
          <mxGeometry x="150" y="310" width="120" height="60" as="geometry" />
        </mxCell>
        <mxCell id="NqzIvoFGnlJUJ6ZqDgtP-7" style="edgeStyle=orthogonalEdgeStyle;rounded=0;orthogonalLoop=1;jettySize=auto;html=1;exitX=0.5;exitY=1;exitDx=0;exitDy=0;entryX=0.5;entryY=0;entryDx=0;entryDy=0;" parent="1" source="NUFGH_hVGk4y_TYJHu7n-4" target="NqzIvoFGnlJUJ6ZqDgtP-6" edge="1">
          <mxGeometry relative="1" as="geometry" />
        </mxCell>
        <mxCell id="NqzIvoFGnlJUJ6ZqDgtP-32" style="edgeStyle=orthogonalEdgeStyle;rounded=0;orthogonalLoop=1;jettySize=auto;html=1;exitX=1;exitY=0.5;exitDx=0;exitDy=0;entryX=0;entryY=0.5;entryDx=0;entryDy=0;fontColor=#B3B3B3;dashed=1;" parent="1" source="NUFGH_hVGk4y_TYJHu7n-4" target="NUFGH_hVGk4y_TYJHu7n-5" edge="1">
          <mxGeometry relative="1" as="geometry">
            <Array as="points">
              <mxPoint x="130" y="460" />
              <mxPoint x="130" y="430" />
            </Array>
          </mxGeometry>
        </mxCell>
        <mxCell id="NqzIvoFGnlJUJ6ZqDgtP-39" style="edgeStyle=orthogonalEdgeStyle;rounded=0;orthogonalLoop=1;jettySize=auto;html=1;exitX=0.75;exitY=1;exitDx=0;exitDy=0;entryX=0.5;entryY=0;entryDx=0;entryDy=0;dashed=1;fontColor=#B3B3B3;" parent="1" source="NUFGH_hVGk4y_TYJHu7n-4" target="NqzIvoFGnlJUJ6ZqDgtP-38" edge="1">
          <mxGeometry relative="1" as="geometry" />
        </mxCell>
        <mxCell id="NUFGH_hVGk4y_TYJHu7n-4" value="Structural LLHD" style="rounded=0;whiteSpace=wrap;html=1;" parent="1" vertex="1">
          <mxGeometry x="-20" y="430" width="120" height="60" as="geometry" />
        </mxCell>
        <mxCell id="NUFGH_hVGk4y_TYJHu7n-32" style="edgeStyle=orthogonalEdgeStyle;rounded=0;orthogonalLoop=1;jettySize=auto;html=1;exitX=1;exitY=0.5;exitDx=0;exitDy=0;entryX=0;entryY=0.5;entryDx=0;entryDy=0;" parent="1" source="NUFGH_hVGk4y_TYJHu7n-5" target="NUFGH_hVGk4y_TYJHu7n-7" edge="1">
          <mxGeometry relative="1" as="geometry" />
        </mxCell>
        <mxCell id="NqzIvoFGnlJUJ6ZqDgtP-33" style="edgeStyle=orthogonalEdgeStyle;rounded=0;orthogonalLoop=1;jettySize=auto;html=1;exitX=0;exitY=0.75;exitDx=0;exitDy=0;entryX=1;entryY=0.75;entryDx=0;entryDy=0;fontColor=#B3B3B3;dashed=1;" parent="1" source="NUFGH_hVGk4y_TYJHu7n-5" target="NUFGH_hVGk4y_TYJHu7n-4" edge="1">
          <mxGeometry relative="1" as="geometry">
            <Array as="points">
              <mxPoint x="140" y="445" />
              <mxPoint x="140" y="475" />
            </Array>
          </mxGeometry>
        </mxCell>
        <mxCell id="NqzIvoFGnlJUJ6ZqDgtP-42" style="edgeStyle=orthogonalEdgeStyle;rounded=0;orthogonalLoop=1;jettySize=auto;html=1;exitX=0.25;exitY=1;exitDx=0;exitDy=0;entryX=0.75;entryY=0;entryDx=0;entryDy=0;dashed=1;fontColor=#B3B3B3;" parent="1" source="NUFGH_hVGk4y_TYJHu7n-5" target="NqzIvoFGnlJUJ6ZqDgtP-38" edge="1">
          <mxGeometry relative="1" as="geometry">
            <Array as="points">
              <mxPoint x="260" y="470" />
              <mxPoint x="200" y="470" />
              <mxPoint x="200" y="520" />
              <mxPoint x="120" y="520" />
            </Array>
          </mxGeometry>
        </mxCell>
        <mxCell id="NUFGH_hVGk4y_TYJHu7n-5" value="RTL" style="rounded=0;whiteSpace=wrap;html=1;" parent="1" vertex="1">
          <mxGeometry x="230" y="400" width="120" height="60" as="geometry" />
        </mxCell>
        <mxCell id="NUFGH_hVGk4y_TYJHu7n-33" style="edgeStyle=orthogonalEdgeStyle;rounded=0;orthogonalLoop=1;jettySize=auto;html=1;exitX=1;exitY=0.5;exitDx=0;exitDy=0;entryX=-0.043;entryY=0.875;entryDx=0;entryDy=0;entryPerimeter=0;" parent="1" source="NUFGH_hVGk4y_TYJHu7n-6" target="NUFGH_hVGk4y_TYJHu7n-7" edge="1">
          <mxGeometry relative="1" as="geometry" />
        </mxCell>
        <mxCell id="NUFGH_hVGk4y_TYJHu7n-6" value="SV" style="rounded=0;whiteSpace=wrap;html=1;" parent="1" vertex="1">
          <mxGeometry x="230" y="490" width="120" height="60" as="geometry" />
        </mxCell>
        <mxCell id="NqzIvoFGnlJUJ6ZqDgtP-4" style="edgeStyle=orthogonalEdgeStyle;rounded=0;orthogonalLoop=1;jettySize=auto;html=1;exitX=1;exitY=0.5;exitDx=0;exitDy=0;entryX=0;entryY=0.5;entryDx=0;entryDy=0;entryPerimeter=0;" parent="1" source="NUFGH_hVGk4y_TYJHu7n-7" target="NqzIvoFGnlJUJ6ZqDgtP-1" edge="1">
          <mxGeometry relative="1" as="geometry" />
        </mxCell>
        <mxCell id="NUFGH_hVGk4y_TYJHu7n-7" value="EmitVerilog" style="rounded=0;whiteSpace=wrap;html=1;" parent="1" vertex="1">
          <mxGeometry x="450" y="310" width="70" height="240" as="geometry" />
        </mxCell>
        <mxCell id="NUFGH_hVGk4y_TYJHu7n-23" style="edgeStyle=orthogonalEdgeStyle;rounded=0;orthogonalLoop=1;jettySize=auto;html=1;exitX=0.5;exitY=1;exitDx=0;exitDy=0;entryX=0.5;entryY=0;entryDx=0;entryDy=0;" parent="1" source="NUFGH_hVGk4y_TYJHu7n-22" target="NUFGH_hVGk4y_TYJHu7n-1" edge="1">
          <mxGeometry relative="1" as="geometry" />
        </mxCell>
        <mxCell id="NUFGH_hVGk4y_TYJHu7n-25" style="edgeStyle=orthogonalEdgeStyle;rounded=0;orthogonalLoop=1;jettySize=auto;html=1;exitX=0;exitY=0.5;exitDx=0;exitDy=0;entryX=0;entryY=0.5;entryDx=0;entryDy=0;" parent="1" source="NUFGH_hVGk4y_TYJHu7n-22" target="NUFGH_hVGk4y_TYJHu7n-2" edge="1">
          <mxGeometry relative="1" as="geometry" />
        </mxCell>
        <mxCell id="NUFGH_hVGk4y_TYJHu7n-22" value="Handshake" style="rounded=0;whiteSpace=wrap;html=1;" parent="1" vertex="1">
          <mxGeometry x="150" y="40" width="120" height="60" as="geometry" />
        </mxCell>
        <mxCell id="NUFGH_hVGk4y_TYJHu7n-26" value="1." style="text;html=1;strokeColor=none;fillColor=none;align=center;verticalAlign=middle;whiteSpace=wrap;rounded=0;" parent="1" vertex="1">
          <mxGeometry x="190" y="100" width="20" height="20" as="geometry" />
        </mxCell>
        <mxCell id="NUFGH_hVGk4y_TYJHu7n-30" value="1." style="text;html=1;strokeColor=none;fillColor=none;align=center;verticalAlign=middle;whiteSpace=wrap;rounded=0;" parent="1" vertex="1">
          <mxGeometry x="110" y="130" width="20" height="20" as="geometry" />
        </mxCell>
        <mxCell id="NUFGH_hVGk4y_TYJHu7n-34" value="2." style="text;html=1;strokeColor=none;fillColor=none;align=center;verticalAlign=middle;whiteSpace=wrap;rounded=0;" parent="1" vertex="1">
          <mxGeometry x="190" y="190" width="20" height="20" as="geometry" />
        </mxCell>
        <mxCell id="NUFGH_hVGk4y_TYJHu7n-35" value="2." style="text;html=1;strokeColor=none;fillColor=none;align=center;verticalAlign=middle;whiteSpace=wrap;rounded=0;" parent="1" vertex="1">
          <mxGeometry x="190" y="280" width="20" height="20" as="geometry" />
        </mxCell>
        <mxCell id="NUFGH_hVGk4y_TYJHu7n-36" value="1. Handshake to FIRRTL&lt;br&gt;2. Lowering within FIRRTL&lt;br&gt;3. FIRRTL to LLHD&lt;br&gt;4. FIRRTL to RTL&lt;br&gt;5. Mid FIRRTL to RTL (hypothetical)&lt;br&gt;6. Mid FIRRTL to SV (hypothetical)&lt;br&gt;7. EmitVerilog&lt;br&gt;8. Desequentialization / Process Lowering&lt;br&gt;9. LLHD to LLVM (simulation model)&lt;br&gt;10. LLHD to RTL promotion (hypothetical; fallible)&lt;br&gt;11. RTL to LLHD (hypothetical)&lt;br&gt;12. Likely almost identical; eventually merge?" style="text;html=1;strokeColor=none;fillColor=none;align=left;verticalAlign=top;whiteSpace=wrap;rounded=0;" parent="1" vertex="1">
          <mxGeometry x="370" y="30" width="280" height="180" as="geometry" />
        </mxCell>
        <mxCell id="NUFGH_hVGk4y_TYJHu7n-37" value="3." style="text;html=1;strokeColor=none;fillColor=none;align=center;verticalAlign=middle;whiteSpace=wrap;rounded=0;" parent="1" vertex="1">
          <mxGeometry x="140" y="380" width="20" height="20" as="geometry" />
        </mxCell>
        <mxCell id="NUFGH_hVGk4y_TYJHu7n-38" value="4." style="text;html=1;strokeColor=none;fillColor=none;align=center;verticalAlign=middle;whiteSpace=wrap;rounded=0;" parent="1" vertex="1">
          <mxGeometry x="240" y="370" width="20" height="20" as="geometry" />
        </mxCell>
        <mxCell id="NUFGH_hVGk4y_TYJHu7n-39" value="5." style="text;html=1;strokeColor=none;fillColor=none;align=center;verticalAlign=middle;whiteSpace=wrap;rounded=0;" parent="1" vertex="1">
          <mxGeometry x="300" y="250" width="20" height="20" as="geometry" />
        </mxCell>
        <mxCell id="NUFGH_hVGk4y_TYJHu7n-41" value="6." style="text;html=1;strokeColor=none;fillColor=none;align=center;verticalAlign=middle;whiteSpace=wrap;rounded=0;" parent="1" vertex="1">
          <mxGeometry x="350" y="235" width="20" height="20" as="geometry" />
        </mxCell>
        <mxCell id="NUFGH_hVGk4y_TYJHu7n-42" value="7." style="text;html=1;strokeColor=none;fillColor=none;align=center;verticalAlign=middle;whiteSpace=wrap;rounded=0;" parent="1" vertex="1">
          <mxGeometry x="270" y="320" width="20" height="20" as="geometry" />
        </mxCell>
        <mxCell id="NUFGH_hVGk4y_TYJHu7n-43" value="7." style="text;html=1;strokeColor=none;fillColor=none;align=center;verticalAlign=middle;whiteSpace=wrap;rounded=0;" parent="1" vertex="1">
          <mxGeometry x="350" y="410" width="20" height="20" as="geometry" />
        </mxCell>
        <mxCell id="NUFGH_hVGk4y_TYJHu7n-44" value="7." style="text;html=1;strokeColor=none;fillColor=none;align=center;verticalAlign=middle;whiteSpace=wrap;rounded=0;" parent="1" vertex="1">
          <mxGeometry x="350" y="500" width="20" height="20" as="geometry" />
        </mxCell>
        <mxCell id="NqzIvoFGnlJUJ6ZqDgtP-1" value="SV File" style="shape=note;whiteSpace=wrap;html=1;backgroundOutline=1;darkOpacity=0.05;size=10;fillColor=#d5e8d4;strokeColor=#82b366;" parent="1" vertex="1">
          <mxGeometry x="560" y="410" width="80" height="40" as="geometry" />
        </mxCell>
        <mxCell id="NqzIvoFGnlJUJ6ZqDgtP-9" style="edgeStyle=orthogonalEdgeStyle;rounded=0;orthogonalLoop=1;jettySize=auto;html=1;exitX=0.5;exitY=1;exitDx=0;exitDy=0;entryX=0.5;entryY=0;entryDx=0;entryDy=0;entryPerimeter=0;" parent="1" source="NqzIvoFGnlJUJ6ZqDgtP-6" target="NqzIvoFGnlJUJ6ZqDgtP-8" edge="1">
          <mxGeometry relative="1" as="geometry" />
        </mxCell>
        <mxCell id="NqzIvoFGnlJUJ6ZqDgtP-6" value="llhd-sim" style="rounded=1;whiteSpace=wrap;html=1;absoluteArcSize=1;arcSize=20;fillColor=#fff2cc;strokeColor=#d6b656;" parent="1" vertex="1">
          <mxGeometry x="-60" y="550" width="80" height="40" as="geometry" />
        </mxCell>
        <mxCell id="NqzIvoFGnlJUJ6ZqDgtP-8" value="VCD Trace" style="shape=note;whiteSpace=wrap;html=1;backgroundOutline=1;darkOpacity=0.05;size=10;fillColor=#d5e8d4;strokeColor=#82b366;" parent="1" vertex="1">
          <mxGeometry x="-60" y="610" width="80" height="40" as="geometry" />
        </mxCell>
        <mxCell id="NqzIvoFGnlJUJ6ZqDgtP-12" style="edgeStyle=orthogonalEdgeStyle;rounded=0;orthogonalLoop=1;jettySize=auto;html=1;exitX=0.5;exitY=1;exitDx=0;exitDy=0;entryX=0.5;entryY=0;entryDx=0;entryDy=0;" parent="1" source="NqzIvoFGnlJUJ6ZqDgtP-10" target="NqzIvoFGnlJUJ6ZqDgtP-11" edge="1">
          <mxGeometry relative="1" as="geometry" />
        </mxCell>
        <mxCell id="NqzIvoFGnlJUJ6ZqDgtP-10" value="Moore" style="rounded=1;whiteSpace=wrap;html=1;absoluteArcSize=1;arcSize=20;fillColor=#fff2cc;strokeColor=#d6b656;" parent="1" vertex="1">
          <mxGeometry x="-120" y="240" width="80" height="40" as="geometry" />
        </mxCell>
        <mxCell id="NqzIvoFGnlJUJ6ZqDgtP-13" style="edgeStyle=orthogonalEdgeStyle;rounded=0;orthogonalLoop=1;jettySize=auto;html=1;exitX=0.5;exitY=1;exitDx=0;exitDy=0;entryX=0.25;entryY=0;entryDx=0;entryDy=0;" parent="1" source="NqzIvoFGnlJUJ6ZqDgtP-11" target="NUFGH_hVGk4y_TYJHu7n-4" edge="1">
          <mxGeometry relative="1" as="geometry" />
        </mxCell>
        <mxCell id="NqzIvoFGnlJUJ6ZqDgtP-11" value="Behavioural LLHD" style="rounded=0;whiteSpace=wrap;html=1;" parent="1" vertex="1">
          <mxGeometry x="-140" y="310" width="120" height="60" as="geometry" />
        </mxCell>
        <mxCell id="NqzIvoFGnlJUJ6ZqDgtP-15" style="edgeStyle=orthogonalEdgeStyle;rounded=0;orthogonalLoop=1;jettySize=auto;html=1;exitX=0.5;exitY=1;exitDx=0;exitDy=0;exitPerimeter=0;entryX=0.5;entryY=0;entryDx=0;entryDy=0;" parent="1" source="NqzIvoFGnlJUJ6ZqDgtP-14" target="NqzIvoFGnlJUJ6ZqDgtP-10" edge="1">
          <mxGeometry relative="1" as="geometry" />
        </mxCell>
        <mxCell id="NqzIvoFGnlJUJ6ZqDgtP-14" value="SV/VHDL&lt;br&gt;File" style="shape=note;whiteSpace=wrap;html=1;backgroundOutline=1;darkOpacity=0.05;size=10;fillColor=#d5e8d4;strokeColor=#82b366;" parent="1" vertex="1">
          <mxGeometry x="-120" y="160" width="80" height="40" as="geometry" />
        </mxCell>
        <mxCell id="NqzIvoFGnlJUJ6ZqDgtP-22" style="edgeStyle=orthogonalEdgeStyle;rounded=0;orthogonalLoop=1;jettySize=auto;html=1;exitX=0.5;exitY=1;exitDx=0;exitDy=0;exitPerimeter=0;entryX=0.5;entryY=0;entryDx=0;entryDy=0;" parent="1" source="NqzIvoFGnlJUJ6ZqDgtP-17" target="NqzIvoFGnlJUJ6ZqDgtP-19" edge="1">
          <mxGeometry relative="1" as="geometry" />
        </mxCell>
        <mxCell id="NqzIvoFGnlJUJ6ZqDgtP-17" value="FIR File" style="shape=note;whiteSpace=wrap;html=1;backgroundOutline=1;darkOpacity=0.05;size=10;fillColor=#d5e8d4;strokeColor=#82b366;" parent="1" vertex="1">
          <mxGeometry y="60" width="80" height="40" as="geometry" />
        </mxCell>
        <mxCell id="NqzIvoFGnlJUJ6ZqDgtP-23" style="edgeStyle=orthogonalEdgeStyle;rounded=0;orthogonalLoop=1;jettySize=auto;html=1;exitX=1;exitY=0.5;exitDx=0;exitDy=0;entryX=0;entryY=0.5;entryDx=0;entryDy=0;" parent="1" source="NqzIvoFGnlJUJ6ZqDgtP-19" target="NUFGH_hVGk4y_TYJHu7n-1" edge="1">
          <mxGeometry relative="1" as="geometry" />
        </mxCell>
        <mxCell id="NqzIvoFGnlJUJ6ZqDgtP-19" value="FIRRTL Parser" style="rounded=0;whiteSpace=wrap;html=1;" parent="1" vertex="1">
          <mxGeometry y="140" width="80" height="40" as="geometry" />
        </mxCell>
        <mxCell id="NqzIvoFGnlJUJ6ZqDgtP-24" value="8." style="text;html=1;strokeColor=none;fillColor=none;align=center;verticalAlign=middle;whiteSpace=wrap;rounded=0;" parent="1" vertex="1">
          <mxGeometry x="-50" y="380" width="20" height="20" as="geometry" />
        </mxCell>
        <mxCell id="NqzIvoFGnlJUJ6ZqDgtP-28" value="RTL and Testbench" style="text;html=1;strokeColor=none;fillColor=none;align=center;verticalAlign=middle;whiteSpace=wrap;rounded=0;" parent="1" vertex="1">
          <mxGeometry x="-110" y="125" width="60" height="30" as="geometry" />
        </mxCell>
        <mxCell id="NqzIvoFGnlJUJ6ZqDgtP-29" value="9." style="text;html=1;strokeColor=none;fillColor=none;align=center;verticalAlign=middle;whiteSpace=wrap;rounded=0;" parent="1" vertex="1">
          <mxGeometry x="40" y="500" width="20" height="20" as="geometry" />
        </mxCell>
        <mxCell id="NqzIvoFGnlJUJ6ZqDgtP-34" value="10." style="text;html=1;strokeColor=none;fillColor=none;align=center;verticalAlign=middle;whiteSpace=wrap;rounded=0;" parent="1" vertex="1">
          <mxGeometry x="160" y="410" width="20" height="20" as="geometry" />
        </mxCell>
        <mxCell id="NqzIvoFGnlJUJ6ZqDgtP-35" value="11." style="text;html=1;strokeColor=none;fillColor=none;align=center;verticalAlign=middle;whiteSpace=wrap;rounded=0;" parent="1" vertex="1">
          <mxGeometry x="160" y="445" width="20" height="20" as="geometry" />
        </mxCell>
        <mxCell id="NqzIvoFGnlJUJ6ZqDgtP-36" value="12." style="text;html=1;strokeColor=none;fillColor=none;align=center;verticalAlign=middle;whiteSpace=wrap;rounded=0;" parent="1" vertex="1">
          <mxGeometry x="80" y="430" width="20" height="20" as="geometry" />
        </mxCell>
        <mxCell id="NqzIvoFGnlJUJ6ZqDgtP-37" value="12." style="text;html=1;strokeColor=none;fillColor=none;align=center;verticalAlign=middle;whiteSpace=wrap;rounded=0;" parent="1" vertex="1">
          <mxGeometry x="330" y="400" width="20" height="20" as="geometry" />
        </mxCell>
        <mxCell id="NqzIvoFGnlJUJ6ZqDgtP-41" style="edgeStyle=orthogonalEdgeStyle;rounded=0;orthogonalLoop=1;jettySize=auto;html=1;exitX=0.5;exitY=1;exitDx=0;exitDy=0;entryX=0.5;entryY=0;entryDx=0;entryDy=0;entryPerimeter=0;dashed=1;fontColor=#B3B3B3;" parent="1" source="NqzIvoFGnlJUJ6ZqDgtP-38" target="NqzIvoFGnlJUJ6ZqDgtP-40" edge="1">
          <mxGeometry relative="1" as="geometry" />
        </mxCell>
        <mxCell id="NqzIvoFGnlJUJ6ZqDgtP-38" value="circilator" style="rounded=1;whiteSpace=wrap;html=1;absoluteArcSize=1;arcSize=20;fillColor=#fff2cc;strokeColor=#d6b656;dashed=1;" parent="1" vertex="1">
          <mxGeometry x="60" y="550" width="80" height="40" as="geometry" />
        </mxCell>
        <mxCell id="NqzIvoFGnlJUJ6ZqDgtP-40" value="CPP File" style="shape=note;whiteSpace=wrap;html=1;backgroundOutline=1;darkOpacity=0.05;size=10;fillColor=#d5e8d4;strokeColor=#82b366;" parent="1" vertex="1">
          <mxGeometry x="60" y="610" width="80" height="40" as="geometry" />
        </mxCell>
      </root>
    </mxGraphModel>
  </diagram>
</mxfile>
